<?xml version="1.0" encoding="iso-8859-1"?>
<!-- Generator: Adobe Illustrator 19.0.0, SVG Export Plug-In . SVG Version: 6.00 Build 0)  -->
<svg version="1.1" id="Capa_1" xmlns="http://www.w3.org/2000/svg" xmlns:xlink="http://www.w3.org/1999/xlink" x="0px" y="0px"
	 viewBox="0 0 330 330" style="enable-background:new 0 0 330 330;" xml:space="preserve">
<g id="XMLID_19_">
	<circle id="XMLID_20_" style="fill:#0052B4;" cx="160" cy="170" r="160"/>
	<path id="XMLID_21_" style="fill:#006DF0;" d="M160,10c88.365,0,160,71.634,160,160s-71.635,160-160,160"/>
	<circle id="XMLID_22_" style="fill:#FFDA44;" cx="160" cy="170" r="120"/>
	<circle id="XMLID_23_" style="fill:#0052B4;" cx="160" cy="170" r="80"/>
	<path id="XMLID_24_" style="fill:#006DF0;" d="M160,90c44.183,0,80,35.817,80,80s-35.817,80-80,80"/>
	<circle id="XMLID_25_" style="fill:#FFDA44;" cx="160" cy="170" r="40"/>
	<g id="XMLID_26_">
		<path id="XMLID_27_" style="fill:#FFFFFF;" d="M241.611,67.175l-8.031,8.031l-28.62,28.62l-29.34,29.34l-22.397,22.398
			c-5.857,5.857-5.857,15.355,0,21.213c5.857,5.858,15.355,5.858,21.214,0l22.398-22.397l29.34-29.339l28.619-28.62l8.032-8.031
			L241.611,67.175z"/>
		<polygon id="XMLID_28_" style="fill:#FF5023;" points="241.611,67.175 238.076,91.924 280.502,49.497 287.574,0 249.924,37.649 
			245.146,42.427 		"/>
		<polygon id="XMLID_29_" style="fill:#FF9811;" points="238.076,91.924 262.825,88.389 287.573,84.853 292.351,80.075 330,42.427 
			280.502,49.497 		"/>
	</g>
</g>
<g>
</g>
<g>
</g>
<g>
</g>
<g>
</g>
<g>
</g>
<g>
</g>
<g>
</g>
<g>
</g>
<g>
</g>
<g>
</g>
<g>
</g>
<g>
</g>
<g>
</g>
<g>
</g>
<g>
</g>
</svg>
