<?xml version="1.0" encoding="iso-8859-1"?>
<!-- Generator: Adobe Illustrator 19.0.0, SVG Export Plug-In . SVG Version: 6.00 Build 0)  -->
<svg version="1.1" id="Capa_1" xmlns="http://www.w3.org/2000/svg" xmlns:xlink="http://www.w3.org/1999/xlink" x="0px" y="0px"
	 viewBox="0 0 512.001 512.001" style="enable-background:new 0 0 512.001 512.001;" xml:space="preserve">
<path style="fill:#585A60;" d="M105.405,224.921c-28.802,0-54.839,22.586-54.839,56.18c0,8.915,0,15.771,0,25.994h109.677
	c0-30.418,0,3.35,0-27.335C160.244,249.472,135.694,224.921,105.405,224.921z"/>
<path style="fill:#414356;" d="M64.536,279.76c0-27.92,20.868-50.948,47.854-54.38c-2.289-0.291-4.617-0.458-6.985-0.458
	c-28.802,0-54.839,22.586-54.839,56.18c0,8.915,0,15.771,0,25.994h13.97C64.536,294.48,64.536,292.558,64.536,279.76z"/>
<path style="fill:#E2E2E2;" d="M189.426,401.352l-59.78-25.006l-23.722,27.947L82.117,376.38l-59.696,24.971
	c0,0-22.421,9.217-22.421,34.777v63.055c0,6.815,5.525,12.34,12.34,12.34h1.119c4.457,0,180.513,0,186.049,0
	c6.815,0,12.34-5.525,12.34-12.34v-63.055C211.847,410.568,189.426,401.352,189.426,401.352z"/>
<path style="fill:#D3D2D1;" d="M20.567,499.184v-72.31c0-17.925,11.02-27.804,17.608-32.112l-15.753,6.59
	c0,0-22.421,9.217-22.421,34.777v63.055c0,6.815,5.525,12.34,12.34,12.34h1.119h19.448
	C26.091,511.523,20.567,505.999,20.567,499.184z"/>
<g>
	<path style="fill:#EA976E;" d="M145.656,295.432c0,34.243,0.011,29.57-0.025,31.012c10.631,1.609,19.579-6.071,19.579-15.505
		C165.21,301.487,156.254,293.843,145.656,295.432z"/>
	<path style="fill:#EA976E;" d="M65.159,295.443c-9.255-1.235-19.555,5.867-19.555,15.496c0,9.421,8.93,17.116,19.578,15.505
		C65.149,325.109,65.159,329.317,65.159,295.443z"/>
</g>
<g>
	<path style="fill:#E2865D;" d="M160.309,299.86c-3.616-3.409-8.885-5.292-14.654-4.427c0,34.243,0.011,29.57-0.025,31.012
		c5.786,0.876,11.061-1.013,14.679-4.426V299.86z"/>
	<path style="fill:#E2865D;" d="M65.159,322.02c-5.99-5.652-7.062-15.144,0-21.72v-4.856c-9.255-1.235-19.555,5.867-19.555,15.496
		c0,9.421,8.93,17.116,19.578,15.505C65.154,325.303,65.159,326.674,65.159,322.02z"/>
</g>
<path style="fill:#EA976E;" d="M105.923,404.292l23.722-27.947l-0.839-19.562c-14.331,9.886-32.848,8.902-45.83,0.608l-0.86,18.989
	L105.923,404.292z"/>
<path style="fill:#E2865D;" d="M105.108,378.194c-2.318-2.722-2.242-6.855-2.242-6.855l0,0l0.341-7.542
	c-7.71-0.454-14.54-2.77-20.23-6.405l-0.86,18.989l23.806,27.911l10.696-12.601L105.108,378.194z"/>
<path style="fill:#585A60;" d="M121.464,511.523l-7.107-87.082c-0.149-1.819-1.824-3.124-3.63-2.814
	c-1.066,0.182-8.579,0.187-9.667,0c-1.807-0.312-3.483,0.996-3.632,2.816l-7.083,87.081h31.119V511.523z"/>
<path style="fill:#414356;" d="M101.06,421.627c-1.807-0.312-3.483,0.996-3.632,2.816l-7.083,87.081h18.626
	C117.858,402.259,118.183,424.564,101.06,421.627z"/>
<g>
	<path style="fill:#BABABA;" d="M91.175,416.045l14.883-11.753l-0.066-0.081l-0.068,0.081L82.117,376.38
		c-2.43,1.017-0.151,0.055-13.274,5.609l17.104,33.409C85.948,415.399,87.861,418.658,91.175,416.045z"/>
	<path style="fill:#BABABA;" d="M126.542,414.403c0.001-0.001,0.001-0.001,0.001-0.003c4.526-8.839,15.887-31.029,16.595-32.41
		l-13.501-5.636l-23.714,27.937l15.609,12.326C121.532,416.618,124.523,418.349,126.542,414.403z"/>
	<path style="fill:#BABABA;" d="M12.34,511.523h1.119H38.16v-68.826c0-16.483-12.102-30.139-27.905-32.569
		C3.7,417.009,0,425.865,0,436.128v63.055C0,505.999,5.525,511.523,12.34,511.523z"/>
</g>
<path style="fill:#A5A4A4;" d="M20.567,499.184v-72.31c0-4.597,0.728-8.661,1.917-12.241c-3.662-2.26-7.8-3.823-12.229-4.504
	C3.801,416.898,0,425.724,0,436.128v63.055c0,6.815,5.525,12.34,12.34,12.34h1.119h19.448
	C26.091,511.523,20.567,505.999,20.567,499.184z"/>
<path style="fill:#BABABA;" d="M201.592,410.128c-15.802,2.43-27.905,16.086-27.905,32.569v68.826c10.688,0,16.586,0,25.82,0
	c6.815,0,12.34-5.525,12.34-12.34C211.847,440.502,215.297,424.493,201.592,410.128z"/>
<path style="fill:#F0A479;" d="M132.415,273.697c-1.238-1.331-3.256-1.578-4.778-0.582c-16.316,10.658-37.893,17.395-59.095,15.872
	c-2.151-0.163-4.005,1.553-4.005,3.726v32.761c0,21.057,16.497,40.287,41.454,40.287c22.214,0,40.288-18.073,40.288-40.287v-35.405
	C146.278,288.109,146.362,288.689,132.415,273.697z"/>
<path style="fill:#EA9063;" d="M85.103,325.472v-36.915c-5.48,0.65-11.032,0.826-16.561,0.429c-2.151-0.163-4.005,1.553-4.005,3.726
	v32.761c0,27.097,25.783,45.572,51.401,39.042C97.03,359.946,85.103,343.373,85.103,325.472z"/>
<path style="fill:#414356;" d="M105.991,404.345l-11.531,9.107v3.45c0,4.392,3.561,7.952,7.953,7.952h6.959
	c4.391,0,7.952-3.56,7.952-7.952v-3.607L105.991,404.345z"/>
<path style="fill:#323544;" d="M110.741,408.096l-4.751-3.751l-11.531,9.107v3.45c0,4.392,3.561,7.952,7.953,7.952
	c7.424,0,9.05,0.346,11.62-1.518C109.991,420.402,110.741,416.93,110.741,408.096z"/>
<path style="fill:#585A60;" d="M387.948,177.839c-35.299,0-63.912,28.613-63.912,63.912c0,16.271,0,15.586,0,31.858H451.86
	c0-13.561,0-1.264,0-31.858C451.859,206.452,423.247,177.839,387.948,177.839z"/>
<path style="fill:#414356;" d="M340.316,243.315v-1.564c0-32.539,24.32-59.377,55.772-63.378
	c-38.477-4.897-72.053,25.05-72.053,63.378c0,16.271,0,15.586,0,31.858h16.281C340.316,261.696,340.316,253.679,340.316,243.315z"/>
<path style="fill:#E2E2E2;" d="M485.87,383.462l-69.672-29.144l-27.647,32.57l-27.745-32.53l-69.574,29.103
	c0,0-26.131,10.742-26.131,40.531v75.191c0,6.193,4.525,12.34,13.459,12.34c8.004,0,206.515,0,221.1,0
	c6.815,0,12.34-5.525,12.34-12.34v-75.191C512,394.203,485.87,383.462,485.87,383.462z"/>
<path style="fill:#D3D2D1;" d="M285.669,499.184V413.71c0-18.242,9.795-29.331,17.391-35.195l-11.827,4.947
	c0,0-26.131,10.742-26.131,40.531v75.191c0,6.193,4.525,12.34,13.459,12.34h19.448C291.193,511.523,285.669,505.999,285.669,499.184
	z"/>
<g>
	<path style="fill:#EA976E;" d="M434.857,260.017v35.01c0,0.38-0.02,0.755-0.03,1.133c12.39,1.875,22.819-7.075,22.819-18.071
		C457.647,267.075,447.21,258.165,434.857,260.017z"/>
	<path style="fill:#EA976E;" d="M341.042,260.03c-10.786-1.439-22.791,6.838-22.791,18.06c0,10.979,10.407,19.948,22.818,18.071
		C341.031,294.656,341.042,299.353,341.042,260.03z"/>
</g>
<g>
	<path style="fill:#E2865D;" d="M451.311,264.593c-4.186-3.606-10.061-5.534-16.453-4.576v35.01c0,0.38-0.02,0.755-0.03,1.133
		c6.413,0.971,12.295-0.963,16.483-4.575V264.593z"/>
	<path style="fill:#E2865D;" d="M341.042,291.589c-7.716-6.655-9.152-18.598,0-26.453v-5.106
		c-10.786-1.439-22.791,6.838-22.791,18.06c0,10.979,10.407,19.948,22.818,18.071C341.037,294.897,341.042,296.271,341.042,291.589z
		"/>
</g>
<path style="fill:#EA976E;" d="M388.551,386.889l27.647-32.57l-0.977-22.798c-16.701,11.519-38.281,10.376-53.413,0.708
	l-1.002,22.131L388.551,386.889z"/>
<path style="fill:#E2865D;" d="M384.069,355.463c-2.38-2.791-2.492-7.687-2.492-7.687l0,0l0.38-8.387
	c-7.59-0.942-14.372-3.47-20.149-7.161l-1.002,22.131l27.745,32.53l11.134-13.116C399.684,373.772,384.07,355.464,384.069,355.463z"
	/>
<path style="fill:#585A60;" d="M406.636,511.523c-8.912-109.196-7.844-102.325-9.649-103.724c-1.574-1.221-2.832-0.574-4.418-0.574
	c-8.773,0-8.645,0.045-9.687-0.134c-2.102-0.363-4.06,1.157-4.234,3.282l-8.227,101.15H406.636z"/>
<g>
	<path style="fill:#BABABA;" d="M371.363,400.587l17.345-13.698l-0.077-0.095l-0.079,0.095l-27.745-32.53
		c-2.833,1.186-0.177,0.065-15.47,6.538l19.934,38.937C365.271,399.834,367.5,403.632,371.363,400.587z"/>
	<path style="fill:#BABABA;" d="M412.581,398.673c0.001-0.001,0.001-0.002,0.001-0.004c5.276-10.302,18.516-36.163,19.341-37.773
		l-15.735-6.568l-27.637,32.56l18.191,14.365C406.743,401.254,410.228,403.272,412.581,398.673z"/>
	<path style="fill:#BABABA;" d="M278.561,511.523h31.014v-79.875c0-19.21-14.104-35.126-32.522-37.958v0.001
		c-15.156,15.887-11.951,25.808-11.951,105.492C265.102,505.376,269.627,511.523,278.561,511.523z"/>
</g>
<path style="fill:#A5A4A4;" d="M285.669,499.184c0-92.532-0.99-91.58,2.974-101.739c-3.576-1.83-7.473-3.12-11.589-3.753l0,0v0.001
	c-15.185,15.917-11.951,26.061-11.951,105.492c0,6.193,4.525,12.34,13.459,12.34h19.448
	C291.193,511.523,285.669,505.999,285.669,499.184z"/>
<path style="fill:#BABABA;" d="M500.049,393.691L500.049,393.691c-18.417,2.831-32.522,18.747-32.522,37.958v79.875
	c12.18,0,19.681,0,32.134,0c6.815,0,12.34-5.525,12.34-12.34v-75.191C512,412.338,507.898,401.918,500.049,393.691z"/>
<path style="fill:#F0A479;" d="M419.426,234.685c-1.443-1.551-3.794-1.84-5.568-0.679c-19.015,12.421-44.163,20.272-68.873,18.498
	c-2.507-0.19-4.668,1.81-4.668,4.342v38.181c0,24.541,19.227,46.953,48.313,46.953c25.889,0,46.954-21.063,46.954-46.953v-41.264
	C435.583,251.483,435.68,252.158,419.426,234.685z"/>
<path style="fill:#EA9063;" d="M360.807,295.028V252.35c-5.252,0.449-10.546,0.533-15.822,0.155c-2.507-0.19-4.668,1.81-4.668,4.342
	v38.181c0,30.747,28.565,52.264,58.187,45.9C375.448,336.231,360.807,316.441,360.807,295.028z"/>
<g>
	<path style="fill:#414356;" d="M388.63,386.951l-13.44,10.614v4.02c0,5.119,4.151,9.269,9.27,9.269h8.11
		c5.118,0,9.269-4.15,9.269-9.269v-4.204L388.63,386.951z"/>
	<path style="fill:#414356;" d="M397.569,408.374c-1.603-1.959-3.444-1.148-4.999-1.148c-8.773,0-8.645,0.045-9.687-0.134
		c-2.102-0.363-4.06,1.157-4.234,3.282l-8.227,101.15h18.107C397.373,402.793,396.512,409.669,397.569,408.374z"/>
</g>
<path style="fill:#323544;" d="M393.297,401.585v-10.949l-4.667-3.686l-13.44,10.614v4.02c0,5.119,4.151,9.269,9.27,9.269
	c8.717,0,10.281,0.344,13.108-1.471C395.001,407.734,393.297,404.861,393.297,401.585z"/>
<path style="fill:#EA473B;" d="M450.116,61.157l-6.305-41.286c-1.073-7.025-6.626-12.512-13.661-13.503l-40.713-5.733
	c-8.791-1.235-16.935,4.888-18.174,13.688c-1.239,8.798,4.891,16.936,13.688,18.174l6.298,0.888l-97.865,91.481L187.422,68.189
	c-6.022-3.223-13.424-2.288-18.461,2.327L59.207,171.139c-10.85,9.949-3.659,27.948,10.877,27.948c3.884,0,7.78-1.399,10.868-4.231
	l101.349-92.915l106.064,56.731c6.074,3.249,13.543,2.271,18.573-2.432L416.453,53.868l1.855,12.146
	c1.346,8.814,9.589,14.819,18.332,13.475C445.424,78.149,451.457,69.941,450.116,61.157z"/>
<g>
	<path style="fill:#DB302C;" d="M75.66,177.309L185.415,76.685c2.821-2.584,6.384-4.013,10.03-4.205l-8.023-4.292
		c-6.022-3.223-13.424-2.288-18.461,2.327L59.207,171.139c-12.13,11.122-1.593,31.085,14.361,27.55
		C68.759,192.156,69.546,182.915,75.66,177.309z"/>
	<path style="fill:#DB302C;" d="M400.094,46.666c5.919-5.533,0.633-7.95-1.258-8.594c-0.203-0.064-0.413-0.114-0.613-0.186h-0.001
		l0,0c-9.308-3.322-13.541-14.32-8.56-23.084l-0.009-0.002c0,0,4.634-9.623,20.052-11.31l-20.269-2.855
		c-8.791-1.235-16.935,4.888-18.174,13.688c-1.239,8.798,4.891,16.936,13.688,18.174l6.298,0.888l-97.865,91.481l4.005,1.502
		c5.118,1.594,13.997,3.219,19.705-2.115l82.998-77.584C400.092,46.668,400.093,46.667,400.094,46.666z"/>
</g>
<g>
</g>
<g>
</g>
<g>
</g>
<g>
</g>
<g>
</g>
<g>
</g>
<g>
</g>
<g>
</g>
<g>
</g>
<g>
</g>
<g>
</g>
<g>
</g>
<g>
</g>
<g>
</g>
<g>
</g>
</svg>
