<?xml version="1.0" encoding="iso-8859-1"?>
<!-- Generator: Adobe Illustrator 19.1.1, SVG Export Plug-In . SVG Version: 6.00 Build 0)  -->
<svg version="1.1"  xmlns="http://www.w3.org/2000/svg" xmlns:xlink="http://www.w3.org/1999/xlink" x="0px" y="0px"
	 viewBox="0 0 48 48" style="enable-background:new 0 0 48 48;" xml:space="preserve">
<g>
	<g>
		<rect x="7" y="21" style="fill:#C5CAE9;" width="15" height="2"/>
		<rect x="7" y="16" style="fill:#C5CAE9;" width="20" height="2"/>
		<rect x="7" y="26" style="fill:#C5CAE9;" width="19" height="2"/>
	</g>
</g>
<line style="fill:none;stroke:#F9A825;stroke-width:4;stroke-linecap:round;stroke-miterlimit:10;" x1="28" y1="33" x2="19" y2="41"/>
<path style="fill:#FFB74D;" d="M37,6c2.209,0,4,1.791,4,4c0,2.208-1.791,4-4,4s-4-1.792-4-4C33,7.791,34.791,6,37,6"/>
<path style="fill:#FFB74D;" d="M39.5,26h-7c-0.828,0-1.5-0.672-1.5-1.5L30,18v-1l-5.868-5h-6.445
	c-0.822,0.102-1.571-0.504-1.675-1.324C15.909,9.852,16.492,9.102,17.313,9l7,0.012c0.359-0.047,0.72,0.041,1.019,0.242l6,4
	c0.165,0.109,1.789,1.625,1.789,1.625C33.285,15.125,34,16.695,34,16.99V23h5.5c0.828,0,1.5,0.672,1.5,1.5S40.328,26,39.5,26z"/>
<path style="fill:#FFB74D;" d="M28,35H17c-1.104,0-2-0.895-2-2c0-1.104,0.896-2,2-2h7.468l-4.841-6.531L24.687,21l5.027,10.973
	c0.371,0.617,0.381,1.387,0.025,2.014C29.386,34.613,28.721,35,28,35z"/>
<path style="fill:#FFB74D;" d="M22.503,26c-1.064,0-2.115-0.484-2.803-1.4c-1.16-1.545-0.847-3.74,0.7-4.9l7.817-5.842
	c1.544-1.16,3.739-0.846,4.899,0.701c1.16,1.545,0.847,3.74-0.7,4.9L24.6,25.301C23.971,25.773,23.233,26,22.503,26z"/>
<path style="fill:#FF66A1;" d="M30.454,20.951L34,18.316V16.99c0-0.033,0.222-1.667-0.7-2.59c-1.1-1.1-3.157-1.939-3.157-1.939
	L20.4,19.699c-1.547,1.16-1.86,3.356-0.7,4.9c0.688,0.916,1.738,1.4,2.803,1.4c0.731,0,1.468-0.227,2.097-0.699l5.849-4.387
	L30.454,20.951z"/>
<path style="fill:#546E7A;" d="M19.807,24.711L24.468,31h4.801l-3.138-6.848l-3.792-5.893L20.4,19.699
	c-1.547,1.16-1.86,3.356-0.7,4.9C19.732,24.642,19.773,24.671,19.807,24.711z"/>
</svg>
